<?xml version="1.0" standalone="no"?>
<!DOCTYPE svg PUBLIC "-//W3C//DTD SVG 20010904//EN"
 "http://www.w3.org/TR/2001/REC-SVG-20010904/DTD/svg10.dtd">
<svg version="1.0" xmlns="http://www.w3.org/2000/svg"
 width="1600.000000pt" height="1600.000000pt" viewBox="0 0 1600.000000 1600.000000"
 preserveAspectRatio="xMidYMid meet">
<metadata>
Created by potrace 1.11, written by Peter Selinger 2001-2013
</metadata>
<g transform="translate(0.000000,1600.000000) scale(0.100000,-0.100000)"
fill="#000000" stroke="none">
<path d="M7670 15694 c-320 -27 -556 -60 -785 -109 -1421 -305 -2647 -1148
-3447 -2370 -514 -784 -815 -1686 -878 -2630 -6 -94 -10 -1216 -10 -3028 0
-2843 0 -2880 20 -2977 144 -706 807 -1178 1508 -1074 536 79 972 478 1114
1018 20 75 22 114 27 538 l6 456 105 -60 c1112 -632 2441 -845 3730 -597 2258
434 4026 2275 4369 4549 54 359 75 829 52 1165 -75 1094 -450 2101 -1107 2965
-268 354 -620 712 -974 991 -742 587 -1656 981 -2580 1113 -96 14 -220 30
-275 37 -96 10 -782 21 -875 13z m750 -2709 c617 -97 1150 -365 1580 -795 799
-799 1037 -1985 604 -3017 -139 -333 -332 -619 -594 -884 -330 -334 -677 -550
-1117 -695 -294 -98 -550 -138 -873 -138 -235 0 -340 10 -560 54 -1055 210
-1908 1034 -2158 2085 -86 361 -100 727 -42 1081 188 1142 1076 2057 2215
2283 87 17 149 26 305 45 88 10 539 -3 640 -19z"/>
<path d="M3655 2924 c-485 -85 -887 -433 -1038 -899 -43 -130 -59 -222 -64
-370 -8 -224 32 -421 123 -614 183 -387 539 -664 962 -748 119 -24 375 -24
494 0 413 82 761 345 947 716 207 412 185 916 -58 1301 -208 331 -539 554
-911 615 -117 19 -346 18 -455 -1z"/>
</g>
</svg>
